<?xml version="1.0" encoding="utf-8"?>
<!-- Generator: Adobe Illustrator 16.0.0, SVG Export Plug-In . SVG Version: 6.00 Build 0)  -->
<!DOCTYPE svg PUBLIC "-//W3C//DTD SVG 1.1//EN" "http://www.w3.org/Graphics/SVG/1.1/DTD/svg11.dtd">
<svg version="1.1" id="Layer_1" xmlns="http://www.w3.org/2000/svg" xmlns:xlink="http://www.w3.org/1999/xlink" x="0px" y="0px"
	 width="512px" height="512px" viewBox="0 0 512 512" enable-background="new 0 0 512 512" xml:space="preserve">
<g>
	<path d="M448.578,195.082c1.793,5.247,2.846,9.895,2.846,13.654c0,27.32-24.115,49.83-55.645,54.15
		c8.111,15.883,12.776,33.804,12.776,52.826v64.139h63.436c16.196,0,29.323-13.137,29.323-29.346v-76.295
		C501.314,238.562,479.564,208.027,448.578,195.082z"/>
	<path d="M384.889,98.081c27.18,0,49.316,22.127,49.316,49.327c0,27.878-22.741,61.929-49.316,61.929
		c-10.286,0-19.936-5.152-27.949-13.001c-1.602,6.357-3.739,12.609-6.292,18.733c8.364,4.911,16.097,10.766,22.995,17.529
		c3.641,0.749,7.377,1.27,11.246,1.27c26.477,0,49.127-18.854,62.124-42.851c7.413-13.703,11.728-29.076,11.728-43.609
		c0-40.728-33.125-73.859-73.852-73.859c-20.602,0-39.228,8.529-52.643,22.201c5.75,6.117,10.797,12.888,14.95,20.234
		C356.237,105.141,369.685,98.081,384.889,98.081z"/>
	<path d="M60.611,207.907c0-3.762,1.018-8.409,2.812-13.656c-30.956,12.944-52.737,43.481-52.737,79.129v76.294
		c0,16.212,13.159,29.349,29.354,29.349h63.436v-63.31c0-19.334,4.79-37.548,13.159-53.624
		C84.918,257.896,60.611,235.338,60.611,207.907z"/>
	<path d="M127.146,233.037c4.248,0,8.4-0.599,12.425-1.517c6.578-6.308,13.924-11.812,21.818-16.451
		c-2.655-6.34-4.825-12.825-6.453-19.404c-7.987,7.762-17.602,12.84-27.79,12.84c-26.578,0-49.352-34.05-49.352-61.929
		c0-27.197,22.137-49.325,49.352-49.325c15.365,0,28.938,7.211,37.978,18.271c4.185-7.322,9.232-14.079,15.013-20.156
		c-13.446-13.91-32.196-22.646-52.99-22.646c-40.729,0-73.885,33.132-73.885,73.856c0,14.536,4.313,29.906,11.726,43.609
		C77.986,214.184,100.666,233.037,127.146,233.037z"/>
	<path d="M330.521,223.12c2.108,6.139,3.321,11.587,3.321,15.994c0,35.575-34.846,64.411-77.809,64.411
		c-42.998,0-77.844-28.836-77.844-64.411c0-4.407,1.214-9.855,3.321-15.994c-36.225,15.14-61.679,50.882-61.679,92.593v89.236
		c0,18.967,15.363,34.331,34.304,34.331h203.729c19.007,0,34.335-15.364,34.335-34.331v-89.236
		C392.199,274.002,366.744,238.251,330.521,223.12z"/>
	<path d="M176.144,207.716c1.823,4.463,3.865,8.872,6.229,13.104c15.686,27.967,42.482,49.71,73.66,49.71
		c31.174,0,57.945-21.743,73.624-49.71c2.366-4.231,4.411-8.641,6.229-13.104c5.431-13.146,8.53-27.031,8.53-40.343
		c0-48.745-39.671-88.401-88.384-88.401c-48.742,0-88.418,39.656-88.418,88.401C167.615,180.685,170.715,194.57,176.144,207.716z
		 M256.033,111.682c30.693,0,55.676,24.985,55.676,55.691c0,31.709-25.717,70.446-55.676,70.446
		c-29.995,0-55.707-38.737-55.707-70.446C200.326,136.667,225.305,111.682,256.033,111.682z"/>
</g>
</svg>
