<?xml version="1.0" encoding="iso-8859-1"?>
<!-- Generator: Adobe Illustrator 16.0.0, SVG Export Plug-In . SVG Version: 6.00 Build 0)  -->
<!DOCTYPE svg PUBLIC "-//W3C//DTD SVG 1.1//EN" "http://www.w3.org/Graphics/SVG/1.1/DTD/svg11.dtd">
<svg version="1.1" id="Capa_1" xmlns="http://www.w3.org/2000/svg" xmlns:xlink="http://www.w3.org/1999/xlink" x="0px" y="0px"
	 width="46.82px" height="46.82px" viewBox="0 0 46.82 46.82" style="enable-background:new 0 0 46.82 46.82;" xml:space="preserve"
	>
<g>
	<path d="M30.307,33.889v10.5c0,0.554-0.446,1-1,1h-11.75c-0.553,0-1-0.446-1-1v-10.5c0-0.553,0.447-1,1-1h0.584
		c-0.02-0.142-0.043-0.28-0.043-0.429V18.352c-0.365-0.195-0.684-0.479-0.918-0.836l-8-12.215C8.423,4.147,8.747,2.596,9.903,1.84
		c1.155-0.757,2.702-0.434,3.461,0.722l4.389,6.7c-0.071-0.367-0.112-0.746-0.112-1.135c0-3.209,2.604-5.813,5.813-5.813
		c3.211,0,5.813,2.602,5.813,5.813c0,0.361-0.037,0.713-0.101,1.057l4.336-6.622c0.761-1.155,2.31-1.477,3.464-0.722
		c1.153,0.756,1.477,2.307,0.721,3.461l-8,12.215c-0.233,0.357-0.553,0.642-0.92,0.836v14.109c0,0.146-0.021,0.287-0.043,0.429
		h0.586C29.858,32.889,30.307,33.337,30.307,33.889z M12.821,19.274h-0.834c0.934-1.031,1.506-2.396,1.506-3.896
		c0-3.209-2.602-5.812-5.813-5.812c-3.209,0-5.813,2.604-5.813,5.812c0,1.5,0.574,2.863,1.506,3.896H2.5c-1.381,0-2.5,1.119-2.5,2.5
		v7.078c0,1.32,1.029,2.392,2.326,2.481v8.806h-0.52c-0.554,0-1,0.447-1,1v3.25c0,0.554,0.446,1,1,1h11.75c0.553,0,1-0.446,1-1
		v-3.25c0-0.553-0.447-1-1-1h-0.563v-8.806c1.299-0.091,2.328-1.16,2.328-2.481v-7.078C15.321,20.393,14.202,19.274,12.821,19.274z
		 M44.321,19.274h-0.834c0.935-1.031,1.506-2.396,1.506-3.896c0-3.209-2.603-5.812-5.813-5.812c-3.209,0-5.812,2.604-5.812,5.812
		c0,1.5,0.574,2.863,1.506,3.896H34c-1.381,0-2.5,1.119-2.5,2.5v7.078c0,1.32,1.029,2.392,2.326,2.481v8.806h-0.521
		c-0.554,0-1,0.447-1,1v3.25c0,0.554,0.446,1,1,1h11.75c0.554,0,1-0.446,1-1v-3.25c0-0.553-0.446-1-1-1h-0.562v-8.806
		c1.299-0.091,2.328-1.16,2.328-2.481v-7.078C46.821,20.393,45.702,19.274,44.321,19.274z"/>
</g>
<g>
</g>
<g>
</g>
<g>
</g>
<g>
</g>
<g>
</g>
<g>
</g>
<g>
</g>
<g>
</g>
<g>
</g>
<g>
</g>
<g>
</g>
<g>
</g>
<g>
</g>
<g>
</g>
<g>
</g>
</svg>
