<svg height="512pt" viewBox="-136 0 512 512" width="512pt" xmlns="http://www.w3.org/2000/svg"><path d="m172.5 317v-134.5h30v134.511719c.003906 10.332031 8.414062 18.738281 18.75 18.738281 10.339844 0 18.75-8.410156 18.75-18.75v-134.5c0-28.949219-23.550781-52.5-52.5-52.5h-135c-28.949219 0-52.5 23.550781-52.5 52.5v134.5c0 10.339844 8.410156 18.75 18.75 18.75s18.75-8.410156 18.75-18.75v-134.5h30v329.5h37.5v-195.5h30v195.5h37.5s0-194.980469 0-195zm0 0"/><path d="m69.625 59.375 50.640625 53.371094 50.089844-53.351563c6.226562-6.578125 9.644531-15.164062 9.644531-24.203125 0-19.402344-15.789062-35.191406-35.191406-35.191406-7.386719 0-14.457032 2.265625-20.445313 6.546875l-4.363281 3.121094-4.363281-3.121094c-5.988281-4.28125-13.058594-6.546875-20.445313-6.546875-19.402344 0-35.191406 15.789062-35.191406 35.191406 0 9.039063 3.417969 17.625 9.625 24.183594zm0 0"/></svg>